<?xml version="1.0" encoding="utf-8"?>
<!-- Generator: Adobe Illustrator 16.0.0, SVG Export Plug-In . SVG Version: 6.00 Build 0)  -->
<!DOCTYPE svg PUBLIC "-//W3C//DTD SVG 1.1//EN" "http://www.w3.org/Graphics/SVG/1.1/DTD/svg11.dtd">
<svg version="1.1" id="图形" xmlns="http://www.w3.org/2000/svg" xmlns:xlink="http://www.w3.org/1999/xlink" x="0px" y="0px"
	 width="1024px" height="1024px" viewBox="0 0 1024 1024" enable-background="new 0 0 1024 1024" xml:space="preserve">
<g id="形状_8">
	<g>
		<path fill-rule="evenodd" clip-rule="evenodd" d="M499,414.648c-13.066,0-24.384,10.828-24.384,24.165v290.15
			c0,13.06,10.927,24.184,24.384,24.184c13.066,0,24.384-10.847,24.384-24.184v-290.15C523.384,425.809,512.457,414.648,499,414.648
			z M499,317.932c-6.38,0-12.722,2.601-17.242,7.083c-4.511,4.464-7.143,10.754-7.143,17.082c0,6.327,2.632,12.636,7.143,17.1
			c4.52,4.482,10.862,7.083,17.242,7.083c6.379,0,12.722-2.601,17.241-7.083c4.511-4.464,7.143-10.773,7.143-17.1
			c0-6.328-2.632-12.618-7.143-17.082C511.722,320.533,505.379,317.932,499,317.932z M499,172.848
			c-201.953,0-365.684,162.387-365.684,362.683c0,200.295,163.73,362.683,365.684,362.683
			c201.952,0,365.684-162.388,365.684-362.683C864.684,335.235,700.952,172.848,499,172.848z M499,849.846
			c-175.04,0-316.925-140.713-316.925-314.315c0-173.603,141.886-314.315,316.925-314.315
			c175.039,0,316.935,140.712,316.935,314.315C815.935,709.133,674.039,849.846,499,849.846z"/>
	</g>
</g>
</svg>
