<?xml version="1.0" encoding="utf-8"?>
<!-- Generator: Adobe Illustrator 16.0.0, SVG Export Plug-In . SVG Version: 6.00 Build 0)  -->
<!DOCTYPE svg PUBLIC "-//W3C//DTD SVG 1.1//EN" "http://www.w3.org/Graphics/SVG/1.1/DTD/svg11.dtd">
<svg version="1.1" id="图形" xmlns="http://www.w3.org/2000/svg" xmlns:xlink="http://www.w3.org/1999/xlink" x="0px" y="0px"
	 width="1024px" height="1024px" viewBox="0 0 1024 1024" enable-background="new 0 0 1024 1024" xml:space="preserve">
<g id="形状_5">
	<g>
		<path fill-rule="evenodd" clip-rule="evenodd" d="M775.842,240.257H222.658c-50.481,0-91.784,46.399-91.784,103.121v383.056
			c0,56.722,41.303,103.141,91.784,103.141h553.184c50.463,0,91.775-46.419,91.775-103.141V343.378
			C867.617,286.656,826.305,240.257,775.842,240.257z M742.49,748.755c0,23.618-17.2,42.925-38.212,42.925H220.73
			c-31.424,0-57.135-28.89-57.135-64.188V342.34c0-35.319,25.711-64.188,57.135-64.188h483.548
			c21.012,0,38.212,19.306,38.212,42.925v106.515h-83.007c-63.088,0-114.715,58-114.715,128.876
			c0,70.897,51.627,128.896,114.715,128.896h83.007V748.755z M834.888,727.491c0,35.299-25.712,64.188-57.127,64.188h-12.136
			c6.468-11.899,10.217-25.875,10.217-40.769v-65.547h59.046V727.491z M834.888,640.722H669.025
			c-41.241,0-74.983-37.914-74.983-84.254c0-46.339,33.742-84.253,74.983-84.253h165.862V640.722z M834.888,427.592h-59.046V318.92
			c0-14.914-3.749-28.87-10.217-40.769h12.136c31.415,0,57.127,28.87,57.127,64.188V427.592z M643.776,536.822
			c-4.46,5.012-7.063,12.059-7.063,19.146s2.604,14.136,7.063,19.167c4.46,5.012,10.732,7.927,17.049,7.927
			c6.308,0,12.571-2.915,17.04-7.927c4.46-5.031,7.055-12.079,7.055-19.167s-2.595-14.135-7.055-19.146
			c-4.469-5.012-10.732-7.926-17.04-7.926C654.509,528.896,648.236,531.811,643.776,536.822z"/>
	</g>
</g>
</svg>
