<?xml version="1.0" encoding="utf-8"?>
<!-- Generator: Adobe Illustrator 16.0.0, SVG Export Plug-In . SVG Version: 6.00 Build 0)  -->
<!DOCTYPE svg PUBLIC "-//W3C//DTD SVG 1.1//EN" "http://www.w3.org/Graphics/SVG/1.1/DTD/svg11.dtd">
<svg version="1.1" id="图形" xmlns="http://www.w3.org/2000/svg" xmlns:xlink="http://www.w3.org/1999/xlink" x="0px" y="0px"
	 width="1024px" height="1024px" viewBox="0 0 1024 1024" enable-background="new 0 0 1024 1024" xml:space="preserve">
<g id="形状_2">
	<g>
		<path fill-rule="evenodd" clip-rule="evenodd" d="M313.384,526.159h324.991c8.726,0,15.742-6.354,15.742-14.159
			c0-7.804-7.017-14.141-15.742-14.141H313.384c-8.684,0-15.721,6.319-15.721,14.141S304.7,526.159,313.384,526.159z
			 M297.663,609.482c0,7.858,7.037,14.177,15.721,14.177h397.232c8.704,0,15.721-6.318,15.721-14.177
			c0-7.805-7.017-14.158-15.721-14.158H313.384C304.7,595.324,297.663,601.66,297.663,609.482z M710.616,692.86H313.384
			c-8.684,0-15.721,6.336-15.721,14.158c0,7.858,7.037,14.159,15.721,14.159h397.232c8.704,0,15.721-6.301,15.721-14.159
			C726.337,699.196,719.32,692.86,710.616,692.86z M834.494,381.152c-0.102-1.325-0.346-2.596-0.874-3.849
			c-0.163-0.412-0.265-0.823-0.488-1.217c-0.732-1.486-1.708-2.917-3.03-4.135L613.421,176.951
			c-1.343-1.217-2.949-2.094-4.597-2.774c-0.427-0.179-0.875-0.269-1.302-0.412c-1.444-0.447-2.867-0.716-4.373-0.788
			c-0.305-0.036-0.569-0.179-0.895-0.179H313.384c-68.417,0-124.062,50.084-124.062,111.677v455.068
			c0,61.558,55.645,111.659,124.062,111.659h397.232c68.376,0,124.062-50.102,124.062-111.659V381.976
			C834.678,381.671,834.515,381.438,834.494,381.152z M617.997,221.127l162.968,146.689H656.436
			c-21.192,0-38.438-15.519-38.438-34.601V221.127z M803.215,739.524c0,45.949-41.551,83.36-92.599,83.36H313.384
			c-51.068,0-92.619-37.411-92.619-83.36V284.457c0-45.967,41.551-83.359,92.619-83.359h273.21v132.119
			c0,34.69,31.32,62.9,69.841,62.9h146.779V739.524z"/>
	</g>
</g>
</svg>
