<?xml version="1.0" encoding="utf-8"?>
<!-- Generator: Adobe Illustrator 16.0.0, SVG Export Plug-In . SVG Version: 6.00 Build 0)  -->
<!DOCTYPE svg PUBLIC "-//W3C//DTD SVG 1.1//EN" "http://www.w3.org/Graphics/SVG/1.1/DTD/svg11.dtd">
<svg version="1.1" id="图形" xmlns="http://www.w3.org/2000/svg" xmlns:xlink="http://www.w3.org/1999/xlink" x="0px" y="0px"
	 width="1024px" height="1024px" viewBox="0 0 1024 1024" enable-background="new 0 0 1024 1024" xml:space="preserve">
<g id="形状_1">
	<g>
		<path fill-rule="evenodd" clip-rule="evenodd" d="M512,287.145c-159.146,0-318.561,187.26-318.561,224.855
			c0,37.518,158.713,224.855,318.561,224.855c159.477,0,318.561-187.609,318.561-224.855
			C830.561,474.521,670.734,287.145,512,287.145z M512,699.376c-129.069,0-261.581-148.829-277.805-187.376
			C250.522,473.473,383.034,324.624,512,324.624c128.637,0,261.23,148.733,277.805,187.376
			C773.271,550.663,640.637,699.376,512,699.376z M512,418.312c-55,0-99.549,41.962-99.549,93.688
			c0,51.745,44.548,93.688,99.549,93.688c55.041,0,99.549-41.943,99.549-93.688C611.549,460.274,567.041,418.312,512,418.312z
			 M512,568.209c-32.984,0-59.742-25.174-59.742-56.209c0-31.055,26.758-56.209,59.742-56.209c32.983,0,59.741,25.154,59.741,56.209
			C571.741,543.035,545.004,568.209,512,568.209z"/>
	</g>
</g>
</svg>
