<?xml version="1.0" encoding="utf-8"?>
<!-- Generator: Adobe Illustrator 16.0.0, SVG Export Plug-In . SVG Version: 6.00 Build 0)  -->
<!DOCTYPE svg PUBLIC "-//W3C//DTD SVG 1.1//EN" "http://www.w3.org/Graphics/SVG/1.1/DTD/svg11.dtd">
<svg version="1.1" id="图形" xmlns="http://www.w3.org/2000/svg" xmlns:xlink="http://www.w3.org/1999/xlink" x="0px" y="0px"
	 width="1024px" height="1024px" viewBox="0 0 1024 1024" enable-background="new 0 0 1024 1024" xml:space="preserve">
<g id="形状_1_1_">
	<g>
		<path fill-rule="evenodd" clip-rule="evenodd" d="M641.626,283.013c-53.929,0-96.684,21.945-129.42,57.987
			c-33.148-36.042-75.533-57.987-129.461-57.987c-97.467,0-176.813,69.897-176.813,156.112c0,51.395,28.51,87.454,51.228,116.284
			c65.885,84.338,224.99,174.925,231.917,179.313c6.927,4.39,14.637,6.266,22.718,6.266c8.102,0,15.812-2.187,22.738-6.266
			c6.947-4.389,166.052-95.302,232.308-179.313c22.718-28.83,51.229-64.889,51.229-116.284
			C818.068,353.22,738.722,283.013,641.626,283.013z"/>
	</g>
</g>
</svg>
