<?xml version="1.0" encoding="utf-8"?>
<!-- Generator: Adobe Illustrator 16.0.0, SVG Export Plug-In . SVG Version: 6.00 Build 0)  -->
<!DOCTYPE svg PUBLIC "-//W3C//DTD SVG 1.1//EN" "http://www.w3.org/Graphics/SVG/1.1/DTD/svg11.dtd">
<svg version="1.1" id="图形" xmlns="http://www.w3.org/2000/svg" xmlns:xlink="http://www.w3.org/1999/xlink" x="0px" y="0px"
	 width="1024px" height="1024px" viewBox="0 0 1024 1024" enable-background="new 0 0 1024 1024" xml:space="preserve">
<g id="形状_7">
	<g>
		<path fill-rule="evenodd" clip-rule="evenodd" d="M234.893,529.343h554.215v-34.671H234.893V529.343z M889.866,252.045H134.134
			c-27.811,0-50.379,15.547-50.379,34.671v450.582c0,19.151,22.568,34.657,50.379,34.657h755.732
			c27.811,0,50.379-15.506,50.379-34.657V286.716C940.245,267.593,917.697,252.045,889.866,252.045z M889.866,719.97
			c0,9.583-11.305,17.328-25.19,17.328H159.324c-13.926,0-25.19-7.745-25.19-17.328V304.045c0-9.569,11.264-17.329,25.19-17.329
			h705.352c13.886,0,25.19,7.76,25.19,17.329V719.97z M234.893,650.642h554.215v-34.657H234.893V650.642z M234.893,408.029h554.215
			v-34.671H234.893V408.029z"/>
	</g>
</g>
</svg>
