<?xml version="1.0" encoding="utf-8"?>
<!-- Generator: Adobe Illustrator 16.0.0, SVG Export Plug-In . SVG Version: 6.00 Build 0)  -->
<!DOCTYPE svg PUBLIC "-//W3C//DTD SVG 1.1//EN" "http://www.w3.org/Graphics/SVG/1.1/DTD/svg11.dtd">
<svg version="1.1" id="图形" xmlns="http://www.w3.org/2000/svg" xmlns:xlink="http://www.w3.org/1999/xlink" x="0px" y="0px"
	 width="1024px" height="1024px" viewBox="0 0 1024 1024" enable-background="new 0 0 1024 1024" xml:space="preserve">
<g id="形状_2_2_">
	<g>
		<path fill-rule="evenodd" clip-rule="evenodd" d="M441.316,445.698c75.687,0,154.401-16.817,201.686-48.869v58.366h43.8v-127.79
			c0-76.832-126.449-118.314-245.415-118.314c-118.975,0-245.496,41.482-245.496,118.314v348.789
			c0,76.832,126.449,118.314,245.424,118.314v-44.187c-124.977,0-201.697-43.197-201.697-74.128v-104.86
			c47.275,31.985,125.928,48.891,201.697,48.891v-44.253c-124.977,0-201.697-43.197-201.697-74.149V396.895
			C286.895,428.88,365.618,445.698,441.316,445.698z M441.316,253.255c124.957,0,201.686,43.197,201.686,74.15
			c0,30.931-76.729,74.128-201.686,74.128c-124.977,0-201.697-43.197-201.697-74.128
			C239.619,296.452,316.421,253.255,441.316,253.255z M637.522,469.923c-108.69,0-165.504,42.23-165.504,83.932v224.121
			c0,41.703,56.896,83.933,165.504,83.933c107.882,0,164.625-41.637,165.504-83.031h0.082V553.855
			C803.026,512.153,746.212,469.923,637.522,469.923z M759.31,777.977c0,11.894-41.438,39.769-121.787,39.769
			s-121.787-27.875-121.787-39.769v-53.508c27.748,15.257,68.521,25.413,121.787,25.413c53.276,0,93.968-10.156,121.787-25.413
			V777.977z M759.31,665.884c0,11.87-41.438,39.745-121.787,39.745s-121.787-27.875-121.787-39.745v-53.508
			c27.748,15.234,68.521,25.391,121.787,25.391c53.276,0,93.968-10.156,121.787-25.391V665.884z M637.522,593.602
			c-80.35,0-121.787-27.875-121.787-39.746c0-11.893,41.438-39.768,121.787-39.768s121.787,27.875,121.787,39.768
			C759.31,565.727,717.872,593.602,637.522,593.602z"/>
	</g>
</g>
</svg>
