<?xml version="1.0" encoding="utf-8"?>
<!-- Generator: Adobe Illustrator 16.0.0, SVG Export Plug-In . SVG Version: 6.00 Build 0)  -->
<!DOCTYPE svg PUBLIC "-//W3C//DTD SVG 1.1//EN" "http://www.w3.org/Graphics/SVG/1.1/DTD/svg11.dtd">
<svg version="1.1" id="图形" xmlns="http://www.w3.org/2000/svg" xmlns:xlink="http://www.w3.org/1999/xlink" x="0px" y="0px"
	 width="1024px" height="1024px" viewBox="0 0 1024 1024" enable-background="new 0 0 1024 1024" xml:space="preserve">
<g id="形状_1_4_">
	<g>
		<path fill-rule="evenodd" clip-rule="evenodd" d="M818.868,672.613L621.619,562.189c37.865-23.809,60.904-55.177,60.904-89.55
			c0-74.416-107.77-134.742-240.693-134.742c-132.944,0-240.714,60.326-240.714,134.742c0,74.393,107.77,134.719,240.714,134.719
			c61.256,0,117.164-12.826,159.653-33.921l197.312,110.424c5.392,3.039,14.287,2.98,19.845-0.139
			C824.218,680.614,824.301,675.64,818.868,672.613z M441.831,591.436c-117.06,0-212.284-53.286-212.284-118.796
			c0-65.521,95.224-118.82,212.284-118.82c117.039,0,212.262,53.298,212.262,118.82
			C654.093,538.149,558.869,591.436,441.831,591.436z"/>
	</g>
</g>
</svg>
