<?xml version="1.0" encoding="utf-8"?>
<!-- Generator: Adobe Illustrator 16.0.0, SVG Export Plug-In . SVG Version: 6.00 Build 0)  -->
<!DOCTYPE svg PUBLIC "-//W3C//DTD SVG 1.1//EN" "http://www.w3.org/Graphics/SVG/1.1/DTD/svg11.dtd">
<svg version="1.1" id="图形" xmlns="http://www.w3.org/2000/svg" xmlns:xlink="http://www.w3.org/1999/xlink" x="0px" y="0px"
	 width="1024px" height="1024px" viewBox="0 0 1024 1024" enable-background="new 0 0 1024 1024" xml:space="preserve">
<g id="形状_4">
	<g>
		<path fill-rule="evenodd" clip-rule="evenodd" d="M798.711,612.503c-49.414,0-93.333,16.356-121.438,41.757L373.112,548.565
			c3.754-9.345,5.789-19.201,5.789-29.388c0-13.001-3.293-25.476-9.313-37.017l312.299-108.448
			c28.168,23.113,70.052,37.784,116.803,37.784c84.839,0,153.591-48.212,153.591-107.695c0-59.468-68.752-107.681-153.57-107.681
			c-84.839,0-153.611,48.212-153.611,107.681c0,10.593,2.182,20.811,6.25,30.486L335.317,444.045
			c-27.895-20.073-66.864-32.548-110.028-32.548c-84.818,0-153.569,48.212-153.569,107.681c0,59.482,68.751,107.695,153.569,107.695
			c47.652,0,90.187-15.213,118.376-39.063l305.986,106.326c-2.958,8.336-4.552,17.063-4.552,26.063
			c0,59.468,68.772,107.68,153.591,107.68c84.839,0,153.591-48.212,153.591-107.68C952.281,660.715,883.529,612.503,798.711,612.503
			z M798.711,239.203c50.883,0,92.138,28.921,92.138,64.599c0,35.693-41.255,64.614-92.138,64.614c-1.3,0-2.559-0.015-3.838-0.061
			c-0.188,0-0.356,0-0.524-0.015c-1.217-0.03-2.412-0.09-3.607-0.166c-0.21-0.015-0.44-0.03-0.671-0.045
			c-1.175-0.075-2.35-0.166-3.523-0.271c-0.189-0.015-0.378-0.045-0.546-0.061c-1.216-0.12-2.454-0.241-3.649-0.391
			c-0.042-0.015-0.042-0.015-0.063-0.015c-1.217-0.15-2.434-0.331-3.629-0.512c-0.146-0.015-0.293-0.045-0.44-0.06
			c-1.153-0.196-2.307-0.391-3.46-0.602c-0.168-0.045-0.357-0.075-0.546-0.105c-1.133-0.226-2.265-0.452-3.377-0.708
			c-0.146-0.03-0.314-0.075-0.461-0.105c-1.153-0.255-2.328-0.542-3.461-0.827c0,0-0.021,0-0.042-0.015
			c-1.153-0.301-2.307-0.617-3.439-0.948c-0.105-0.03-0.21-0.045-0.294-0.075c-1.111-0.331-2.181-0.662-3.271-1.023
			c-0.147-0.045-0.294-0.09-0.44-0.136c-1.07-0.361-2.119-0.722-3.167-1.113c-0.126-0.03-0.252-0.09-0.378-0.121
			c-2.182-0.813-4.342-1.685-6.438-2.618c-0.063-0.03-0.105-0.045-0.147-0.06c-1.027-0.467-2.014-0.933-3.02-1.415
			c-0.105-0.045-0.21-0.105-0.336-0.166c-0.965-0.466-1.93-0.963-2.873-1.459c-0.105-0.061-0.189-0.105-0.273-0.166
			c-0.985-0.512-1.93-1.054-2.895-1.595c-16.61-9.661-28.293-23.339-32.047-38.898c-0.42-1.715-0.756-3.476-0.965-5.236
			c0-0.076,0-0.151-0.021-0.211c-0.104-0.828-0.188-1.655-0.23-2.498v-0.391c-0.063-0.843-0.084-1.67-0.084-2.528
			C706.553,268.124,747.787,239.203,798.711,239.203z M225.289,583.792c-50.882,0-92.138-28.922-92.138-64.614
			c0-35.678,41.255-64.614,92.138-64.614c50.924,0,92.159,28.936,92.159,64.614C317.448,554.87,276.213,583.792,225.289,583.792z
			 M798.711,784.797c-50.924,0-92.158-28.921-92.158-64.599c0-1.039,0.042-2.047,0.084-3.07c0-0.015,0-0.03,0.021-0.045
			c0.063-1.008,0.168-2.031,0.314-3.039c2.392-17.771,15.039-33.437,33.747-44.075h0.021c1.111-0.632,2.265-1.264,3.439-1.865
			c0,0,0,0,0-0.016c1.175-0.602,2.37-1.174,3.565-1.745c0.021,0,0.042,0,0.042-0.015c1.217-0.558,2.433-1.099,3.649-1.61
			c0.042-0.016,0.042-0.03,0.084-0.03c1.216-0.512,2.475-1.008,3.733-1.49l0.084-0.029c1.279-0.481,2.559-0.934,3.858-1.37
			c0.042,0,0.084-0.015,0.105-0.029c1.279-0.422,2.601-0.843,3.922-1.219c0.042-0.016,0.084-0.03,0.126-0.046
			c1.342-0.376,2.664-0.752,4.006-1.083l0.146-0.045c1.343-0.331,2.727-0.662,4.069-0.948c0.084-0.015,0.126-0.03,0.188-0.045
			c1.363-0.286,2.748-0.557,4.132-0.813c0.084,0,0.126-0.016,0.21-0.03c1.385-0.241,2.789-0.467,4.216-0.678
			c0.063,0,0.104-0.015,0.188-0.015c1.427-0.195,2.853-0.376,4.3-0.542c0.063,0,0.104,0,0.146-0.015
			c1.469-0.15,2.937-0.271,4.405-0.376c0.041-0.016,0.083-0.016,0.125-0.016c1.511-0.105,3.021-0.181,4.53-0.24h0.063
			c1.531-0.046,3.083-0.075,4.635-0.075c50.883,0,92.138,28.921,92.138,64.614C890.849,755.876,849.594,784.797,798.711,784.797z"/>
	</g>
</g>
</svg>
