<?xml version="1.0" encoding="utf-8"?>
<!-- Generator: Adobe Illustrator 16.0.0, SVG Export Plug-In . SVG Version: 6.00 Build 0)  -->
<!DOCTYPE svg PUBLIC "-//W3C//DTD SVG 1.1//EN" "http://www.w3.org/Graphics/SVG/1.1/DTD/svg11.dtd">
<svg version="1.1" id="图形" xmlns="http://www.w3.org/2000/svg" xmlns:xlink="http://www.w3.org/1999/xlink" x="0px" y="0px"
	 width="1024px" height="1024px" viewBox="0 0 1024 1024" enable-background="new 0 0 1024 1024" xml:space="preserve">
<g id="形状_2_1_">
	<g>
		<path fill-rule="evenodd" clip-rule="evenodd" d="M192.168,489.636H96.214c-17.653,0-31.971,10.017-31.971,22.364
			s14.318,22.364,31.971,22.364h95.954c17.673,0,31.991-10.018,31.991-22.364S209.842,489.636,192.168,489.636z M192.168,735.639
			H96.214c-17.653,0-31.971,10.017-31.971,22.363s14.318,22.364,31.971,22.364h95.954c17.673,0,31.991-10.018,31.991-22.364
			S209.842,735.639,192.168,735.639z M382.469,288.362h546.903c16.778,0,30.385-10.018,30.385-22.364s-13.606-22.364-30.385-22.364
			H382.469c-16.779,0-30.385,10.017-30.385,22.364S365.69,288.362,382.469,288.362z M192.168,243.634H96.214
			c-17.653,0-31.971,10.017-31.971,22.364s14.318,22.364,31.971,22.364h95.954c17.673,0,31.991-10.018,31.991-22.364
			S209.842,243.634,192.168,243.634z M929.372,735.639H382.469c-16.779,0-30.385,10.017-30.385,22.363s13.606,22.364,30.385,22.364
			h546.903c16.778,0,30.385-10.018,30.385-22.364S946.15,735.639,929.372,735.639z M929.372,489.636H382.469
			c-16.779,0-30.385,10.017-30.385,22.364s13.606,22.364,30.385,22.364h546.903c16.778,0,30.385-10.018,30.385-22.364
			S946.15,489.636,929.372,489.636z"/>
	</g>
</g>
</svg>
